<svg id="Layer_1" data-name="Layer 1" xmlns="http://www.w3.org/2000/svg" viewBox="0 0 715.63 756.78"><title>loto dude no bg</title><path d="M873.46,720.81c-23.9-32.88-57.19-48.08-96.55-50.64-13.25-.86-27,1-40.09,3.75-15.23,3.22-13.83,3.56-42.48,12.68a62.63,62.63,0,0,0-8.85,3.55c-24.28,11.93-48.24,25-70.66,40-30.52,20.46-59.3,43.53-88.66,65.7-8.49,6.4-8.17,6.72-15.23-1.13-2.4-2.67-4.75-5.4-7-8.2-17.52-21.69-32.19-44-32.4-73a7.83,7.83,0,0,0-2-4.23,3.62,3.62,0,0,0-5.61.74,8.72,8.72,0,0,0-1,4.14c.66,8.72.89,16.74,3.46,25a156.2,156.2,0,0,0,39.43,64.58c3.78,3.77,3.72,5.86-.41,9.17-19.09,15.33-37.63,31.36-57,46.29-28,21.52-58,39-93.68,44.57-23.34,3.67-46.35,2.91-69.07-3.22C266,895.2,248,886.23,232.39,872.93c-24.18-20.6-38.87-46.46-40.86-78.4-1.89-30.16,8.07-56.86,26.87-80.3,32.5-40.51,76.77-56.45,126.76-59.58,10.73-.67,21.63.81,32.41,1.82,14.11,1.32,28.18,3.11,42.25,4.79,22.58,2.7,45.08,6.49,67.74,8a560.18,560.18,0,0,0,65.05.17,324.07,324.07,0,0,0,51.9-6.91,188.88,188.88,0,0,0,64.4-27.27c28.85-19.14,50.12-43.55,56.92-78.71a94.93,94.93,0,0,0-10.56-66.18c-16-28.69-40.67-48.75-68.15-65.11-25.07-14.92-51.43-27.69-77.2-41.44-.75-.4-2-1.32-1.88-1.6a5.15,5.15,0,0,1,1.86-2.49c23.75-15.21,45.6-32.43,61.46-56.31,19.74-29.72,26.1-61.76,13.47-95.42-13.47-35.88-41.45-56.47-78.19-64.29-24-5.11-47.68-.61-67.83,13.54-35.44,24.9-52.47,58.84-46.39,103,2.82,20.46,11.69,38.11,24.94,53.23,17.55,20,40.36,33.35,63.44,46.08l.41.24a3.53,3.53,0,0,1-.17,6.13c-22.34,11.68-44.68,23.36-67.11,34.86C447.8,434.13,422,448.13,400.51,468.5c-16.45,15.57-27.87,34.15-29.93,57.38-1.56,17.58.58,34.55,8.82,50.45,12.85,24.77,33,40.68,59.85,47.42,18.29,4.59,36.44,2.69,54.41-3.71a124.77,124.77,0,0,0,52.25-35.48c3.58-4,5.55-4.78,9.54-.25,13.62,15.48,29.67,26.07,51.71,22.87,4.12-.6,9.48-.41,9-6.09-.52-6.59-5.79-3.36-9.32-2.92-21.83,2.71-36.25-9-48.3-25-.78-1-.36-3.55.32-5,4.58-9.59,10.29-18.75,13.88-28.68,5.27-14.53,6.37-29.59-1.06-44-4.58-8.89-15.26-15.08-22.08-13.56C535.78,485,530,497.45,528.57,508.26c-2.67,20.53,3.81,39.22,13.62,56.76,2.81,5.05,1.48,8.17-1.75,11.24-8,7.63-15.75,15.71-24.59,22.27a94.53,94.53,0,0,1-50.74,18.83c-19.07,1.25-36.52-4.24-51.88-15.21-18.71-13.35-30.8-31.36-34-54.52-3.62-25.93,5.17-47.92,22.48-66.77,16.75-18.24,37.56-31.18,59.1-42.77C490.72,422,521,406.52,551.27,391a14.28,14.28,0,0,1,11.11-.19c14.59,6.91,29,14.08,43.45,21.37,27,13.7,53.33,28.56,75.46,49.7,16.7,16,29.75,34.42,35,57.12,7.35,31.78-3.68,59.2-23.94,82.88-16.45,19.24-37,33.39-61,42.61-24.81,9.52-50.25,16-76.71,16.26-27.93.34-55.93-.51-83.82-2.15-19.16-1.13-38.2-4.45-57.29-6.86-18.29-2.3-36.57-4.68-56.24-7.21a57.56,57.56,0,0,0-12.91.08c-16.24,1.51-33.45,3.91-50,8.38a156.26,156.26,0,0,0-70.3,40.76c-19.39,19.33-33.05,42.08-39,68.71a114.64,114.64,0,0,0,3.16,62.6C197,851,212.88,871,235,886.52a152.5,152.5,0,0,0,62.81,25.65c31,5.22,61.58,3.44,91.23-7.33,26-9.45,48.77-24.65,70.09-42.09,18.14-14.84,36.23-29.75,54.55-44.36,1.33-1.07,5.22-.9,6.52.26,22.87,20.4,48.07,37.44,74.56,52.72,24.78,14.3,50.38,26.85,78,34.44,18,4.93,36.16,10.26,54.57,11.88,19.67,1.74,39.74-.16,59.58-1.42,17-1.09,32.79-7.12,47.95-15,33.8-17.5,54.1-45.57,60.65-82.26C901.87,783.83,895,750.47,873.46,720.81Zm-336-207.44c.47-6.08,3.39-12.64,7-17.64,5.93-8.13,17-4,20.71,7.44a99.51,99.51,0,0,1,2.64,11.9,3.69,3.69,0,0,1,.07.94c-.93,16.87-6.89,29.81-14.74,42-.43.67-4.09.49-4.42-.18C542,543.79,536.29,529.21,537.51,513.37Zm24.25-139.92a12.83,12.83,0,0,1-11.33.57c-24.07-12-47.16-25.55-65.31-46.07-13.28-15-22.06-31.84-24.08-52.29-3.92-39.83,11.76-70.08,44.56-91.35,31.92-20.69,75.26-15.53,103.6,9.93,15.43,13.86,26.18,30.17,31.16,50.16,1.46,5.86,1.49,12.09,1.85,15.65a3.39,3.39,0,0,1,0,.45c-.58,28.09-11.21,49.33-27,68.56C600.18,347.29,581.45,361,561.76,373.45ZM887.18,810.57c-6.1,42.56-29.79,72.06-69.67,88.75-20,8.36-40.71,11.08-62.22,11.9a3.51,3.51,0,0,1-.56,0c-16.79-2-33.76-3-50.31-6.26-13.83-2.71-27.41-7.36-40.64-12.37-17.32-6.56-34.64-13.43-51.16-21.77A385.73,385.73,0,0,1,530,814.09c-4.81-4.28-4.36-6.63.82-10.49,17.52-13.1,34.38-27.1,51.91-40.19C610.34,742.8,638.57,723,670,708.5c18.61-8.59,37.61-16.62,57.08-22.94a133.89,133.89,0,0,1,63-4.79c40.06,6.57,69.58,28.35,87,65.72C886.58,767,890.33,788.58,887.18,810.57Z" transform="translate(-182.19 -161.61)"/></svg>